<svg xmlns="http://www.w3.org/2000/svg" width="150" height="27.286" viewBox="0 0 150 27.286">
  <g id="Group" transform="translate(-51 -50.909)">
    <path id="Vector" d="M0,27.281V0H5.042a3.866,3.866,0,0,1,3.388,2L18.3,19.952h.141V3.868A3.866,3.866,0,0,1,22.311,0h1.882V27.279H16.865L5.891,7.293H5.751V27.279H0Z" transform="translate(121.474 50.909)" fill="#04bbf2"/>
    <path id="Vector-2" data-name="Vector" d="M20.159,16.076H6.349a8.452,8.452,0,0,0,2.015,4.96,5.987,5.987,0,0,0,4.506,1.578h9.257v4.664H11.292q-5.541,0-8.416-3.506T0,13.64Q0,7.014,2.876,3.506T11.292,0H22.127V.795A3.866,3.866,0,0,1,18.26,4.663H12.87a11.738,11.738,0,0,0-1.98.176,4.582,4.582,0,0,0-1.945.841A5.553,5.553,0,0,0,7.349,7.7a10.5,10.5,0,0,0-1,3.506h13.81a1.547,1.547,0,0,1,1.547,1.547v1.781a1.547,1.547,0,0,1-1.547,1.545Z" transform="translate(85.204 50.911)" fill="#10385b"/>
    <path id="Vector-3" data-name="Vector" d="M20.157,16.076H6.345a8.44,8.44,0,0,0,2.017,4.96,5.987,5.987,0,0,0,4.506,1.578h9.257v4.664H11.29q-5.541,0-8.414-3.506T0,13.64Q0,7.014,2.876,3.506T11.29,0H22.125V.795a3.868,3.868,0,0,1-3.868,3.868h-5.39a11.738,11.738,0,0,0-1.98.176,4.582,4.582,0,0,0-1.945.841A5.506,5.506,0,0,0,7.347,7.7a10.5,10.5,0,0,0-1,3.506H20.159a1.547,1.547,0,0,1,1.547,1.547v1.781a1.55,1.55,0,0,1-1.549,1.545Z" transform="translate(149.48 50.911)" fill="#10385b"/>
    <path id="Vector-4" data-name="Vector" d="M0,27.279V1.934A1.934,1.934,0,0,1,1.934,0H3.817A1.934,1.934,0,0,1,5.751,1.934V27.279Z" transform="translate(111.692 50.911)" fill="#04bbf2"/>
    <path id="Vector-5" data-name="Vector" d="M7.971,1.814,12.727,9.4,17.48,1.814A3.872,3.872,0,0,1,20.758,0h4.7L15.637,13.64l9.818,13.64H18.619l-5.891-9.4-5.891,9.4H0L9.781,13.64,0,0H4.7A3.86,3.86,0,0,1,7.971,1.814Z" transform="translate(175.544 50.911)" fill="#10385b"/>
    <path id="Vector-6" data-name="Vector" d="M29.606,16.111a7.1,7.1,0,0,0-3.384-2.471,6.605,6.605,0,0,0,3.208-2.734,8.128,8.128,0,0,0,1.035-4.137,6.085,6.085,0,0,0-.685-2.945,6.353,6.353,0,0,0-1.824-2.1,8.41,8.41,0,0,0-2.6-1.28A10.227,10.227,0,0,0,22.4,0H2.332A2.332,2.332,0,0,0,0,2.332V4.488H20.611a4.179,4.179,0,0,1,2.963.913,3.306,3.306,0,0,1,.963,2.524,3.37,3.37,0,0,1-.963,2.543,4.139,4.139,0,0,1-2.963.928H11.692v4.488h8.919a4.179,4.179,0,0,1,2.963.913,3.306,3.306,0,0,1,.963,2.524,3.358,3.358,0,0,1-.963,2.56,4.179,4.179,0,0,1-2.963.913H11.7v4.488H22.4a14.649,14.649,0,0,0,3.139-.333,7.4,7.4,0,0,0,2.7-1.156,5.9,5.9,0,0,0,1.876-2.208,7.692,7.692,0,0,0,.7-3.489A6.594,6.594,0,0,0,29.606,16.111Z" transform="translate(51 50.912)" fill="#10385b"/>
    <path id="Vector-7" data-name="Vector" d="M4.22,0H0V4.488H4.22ZM5.573,4.488V0H10.29V4.488Z" transform="translate(51 56.699)" fill="#04bbf2"/>
    <path id="Vector-8" data-name="Vector" d="M4.22,0H0V4.488H4.22ZM5.573,4.488V0H10.29V4.488Z" transform="translate(51 62.308)" fill="#04bbf2"/>
    <path id="Vector-9" data-name="Vector" d="M4.22,0H0V4.489H4.22ZM5.573,4.489V0H10.29V4.489Z" transform="translate(51 68.004)" fill="#04bbf2"/>
    <path id="Vector-10" data-name="Vector" d="M4.22,0H0V4.488H4.22ZM5.573,4.488V0H10.29V4.488Z" transform="translate(51 73.703)" fill="#10385b"/>
  </g>
</svg>
