<svg xmlns="http://www.w3.org/2000/svg" width="22" height="22" viewBox="0 0 22 22">
  <g id="Group_2" data-name="Group 2" transform="translate(6751 -12673)">
    <rect id="Rectangle_1" data-name="Rectangle 1" width="22" height="22" transform="translate(-6751 12673)" fill="none"/>
    <path id="Path_279" data-name="Path 279" d="M20,16h2v2H0V16H2V1A1,1,0,0,1,3,0H13a1,1,0,0,1,1,1V16h4V8H16V6h3a1,1,0,0,1,1,1ZM4,2V16h8V2ZM6,8h4v2H6ZM6,4h4V6H6Z" transform="translate(-6751 12677)" fill="#2b98f7"/>
  </g>
</svg>
