<svg xmlns="http://www.w3.org/2000/svg" width="16" height="16" viewBox="0 0 16 16">
  <path id="Path_71" data-name="Path 71" d="M16,11.507a4.486,4.486,0,0,1-1.061,2.883A4.834,4.834,0,0,1,12.229,16l-.511-1.468a3.279,3.279,0,0,0,1.3-.5,3.122,3.122,0,0,0,.953-.988H12a1.635,1.635,0,0,1-1.131-.449,1.5,1.5,0,0,1-.469-1.085V8.438a1.5,1.5,0,0,1,.469-1.085A1.635,1.635,0,0,1,12,6.9h2.351a6.063,6.063,0,0,0-2.116-3.838,6.607,6.607,0,0,0-8.469,0A6.063,6.063,0,0,0,1.65,6.9H4a1.635,1.635,0,0,1,1.131.449A1.5,1.5,0,0,1,5.6,8.438v3.068a1.5,1.5,0,0,1-.469,1.085A1.635,1.635,0,0,1,4,13.041H1.6a1.635,1.635,0,0,1-1.131-.449A1.5,1.5,0,0,1,0,11.507V7.671A7.515,7.515,0,0,1,2.343,2.247a8.244,8.244,0,0,1,11.314,0A7.515,7.515,0,0,1,16,7.671Z" fill="#fff"/>
</svg>
