<svg xmlns="http://www.w3.org/2000/svg" width="32" height="32.5" viewBox="0 0 32 32.5">
  <g id="Group_1" data-name="Group 1" transform="translate(2579 -12367)">
    <rect id="Rectangle_2" data-name="Rectangle 2" width="32" height="32" transform="translate(-2579 12367)" fill="none"/>
    <g id="Group" transform="translate(-3182 9745)">
      <path id="Vector" d="M0,0H16.6V12.833H0Z" transform="translate(611.083 2638.482)" fill="none" stroke="#fff" stroke-linecap="round" stroke-linejoin="round" stroke-width="1"/>
      <g id="Group-2" data-name="Group">
        <path id="Vector-2" data-name="Vector" d="M0,0H2.409V8.512H0Z" transform="translate(613.622 2640.643)" fill="none" stroke="#fff" stroke-linecap="round" stroke-linejoin="round" stroke-width="1"/>
        <path id="Vector-3" data-name="Vector" d="M0,0H2.409V8.512H0Z" transform="translate(618.18 2640.643)" fill="none" stroke="#fff" stroke-linecap="round" stroke-linejoin="round" stroke-width="1"/>
        <path id="Vector-4" data-name="Vector" d="M0,0H2.409V8.512H0Z" transform="translate(622.737 2640.643)" fill="none" stroke="#fff" stroke-linecap="round" stroke-linejoin="round" stroke-width="1"/>
      </g>
      <path id="Vector-5" data-name="Vector" d="M20.768,2.685H0V1.31A1.31,1.31,0,0,1,1.3,0H19.466a1.31,1.31,0,0,1,1.3,1.31Z" transform="translate(609 2651.315)" fill="none" stroke="#fff" stroke-linecap="round" stroke-linejoin="round" stroke-width="1"/>
      <path id="Vector-6" data-name="Vector" d="M0,6.482H20.768V5.173L10.417,0,0,5.173Z" transform="translate(609 2632)" fill="none" stroke="#04bbf2" stroke-linecap="round" stroke-linejoin="round" stroke-width="1"/>
      <path id="Vector-7" data-name="Vector" d="M2.676,1.338A1.338,1.338,0,1,1,1.338,0,1.338,1.338,0,0,1,2.676,1.338Z" transform="translate(617.919 2634.081)" fill="none" stroke="#fff" stroke-linecap="round" stroke-linejoin="round" stroke-width="1"/>
    </g>
  </g>
</svg>
