<svg xmlns="http://www.w3.org/2000/svg" width="20" height="20" viewBox="0 0 20 20">
  <g id="Group_1" data-name="Group 1" transform="translate(3646 -13905)">
    <rect id="Rectangle_1" data-name="Rectangle 1" width="20" height="20" transform="translate(-3646 13905)" fill="none"/>
    <path id="Path_33" data-name="Path 33" d="M5.336,9.2h1.9L8,6.006H5.336v-1.6c0-.824,0-1.6,1.522-1.6H8V.122A20.481,20.481,0,0,0,5.826.01,3.164,3.164,0,0,0,4.419.219a3.293,3.293,0,0,0-1.193.81,3.493,3.493,0,0,0-.759,1.26,3.623,3.623,0,0,0-.184,1.478V6H0V9.2H2.284V16H5.336Z" transform="translate(-3646 13909)" fill="#fff"/>
  </g>
</svg>
