<svg xmlns="http://www.w3.org/2000/svg" width="32" height="32.699" viewBox="0 0 32 32.699">
  <g id="Group_1" data-name="Group 1" transform="translate(2579 -12367)">
    <rect id="Rectangle_2" data-name="Rectangle 2" width="32" height="32" transform="translate(-2579 12367)" fill="none"/>
    <g id="Group" transform="translate(-3185 9689)">
      <g id="Group-2" data-name="Group">
        <g id="Group-3" data-name="Group">
          <path id="Vector" d="M6,3A3,3,0,1,1,3,0,3,3,0,0,1,6,3Z" transform="translate(618.237 2695.941)" fill="none" stroke="#fff" stroke-linecap="round" stroke-linejoin="round" stroke-width="1"/>
          <path id="Vector-2" data-name="Vector" d="M0,6.727a6.727,6.727,0,1,1,13.454,0" transform="translate(614.508 2703.473)" fill="none" stroke="#fff" stroke-linecap="round" stroke-linejoin="round" stroke-width="1"/>
        </g>
        <g id="Group-4" data-name="Group">
          <path id="Vector-3" data-name="Vector" d="M4.533,2.267A2.267,2.267,0,1,1,2.267,0,2.267,2.267,0,0,1,4.533,2.267Z" transform="translate(627.815 2697.55)" fill="none" stroke="#fff" stroke-linecap="round" stroke-linejoin="round" stroke-width="1"/>
          <path id="Vector-4" data-name="Vector" d="M0,.439A5.245,5.245,0,0,1,2.12,0,5.087,5.087,0,0,1,7.239,5.118" transform="translate(627.961 2703.326)" fill="none" stroke="#fff" stroke-linecap="round" stroke-linejoin="round" stroke-width="1"/>
        </g>
        <g id="Group-5" data-name="Group">
          <path id="Vector-5" data-name="Vector" d="M4.533,2.267A2.267,2.267,0,1,1,2.267,0,2.267,2.267,0,0,1,4.533,2.267Z" transform="translate(610.852 2697.55)" fill="none" stroke="#fff" stroke-linecap="round" stroke-linejoin="round" stroke-width="1"/>
          <path id="Vector-6" data-name="Vector" d="M0,5.118A5.087,5.087,0,0,1,5.118,0,5.582,5.582,0,0,1,7.092.366" transform="translate(608 2703.253)" fill="none" stroke="#fff" stroke-linecap="round" stroke-linejoin="round" stroke-width="1"/>
        </g>
      </g>
      <g id="Group-6" data-name="Group">
        <path id="Vector-7" data-name="Vector" d="M0,5.923V5.557a5.557,5.557,0,0,1,11.114,0" transform="translate(616.043 2688.338)" fill="none" stroke="#04bbf2" stroke-linecap="round" stroke-linejoin="round" stroke-width="1"/>
        <path id="Vector-8" data-name="Vector" d="M21.862,10.895V8.7H19.6a8.887,8.887,0,0,0-1.024-2.413l1.609-1.535L17.11,1.682,15.5,3.29a8.887,8.887,0,0,0-2.413-1.024V0H8.774V2.267A8.887,8.887,0,0,0,6.361,3.29L4.753,1.682,1.682,4.753,3.29,6.361A8.887,8.887,0,0,0,2.267,8.774H0V11.48" transform="translate(610.705 2683)" fill="none" stroke="#04bbf2" stroke-linecap="round" stroke-linejoin="round" stroke-width="1"/>
      </g>
    </g>
  </g>
</svg>
