<svg width="68" height="68" viewBox="0 0 68 68" fill="none" xmlns="http://www.w3.org/2000/svg">
<path d="M67.9938 33.7004C67.8357 15.0612 52.676 0 33.9969 0C15.2179 0 0 15.2193 0 34C0 52.7807 15.2179 68 33.9969 68C39.6464 68 44.9714 66.6187 49.6641 64.1806C49.7306 64.1473 49.7972 64.114 49.8721 64.0724C50.105 63.9143 50.2548 63.6397 50.2548 63.3319C50.2548 62.8326 49.8554 62.4332 49.3562 62.4332C49.2564 62.4332 49.1565 62.4498 49.065 62.4831C48.9984 62.5164 48.9319 62.5497 48.8653 62.583C44.7717 64.5883 40.1706 65.7117 35.3032 65.7117C18.2382 65.7117 4.40146 51.8737 4.40146 34.7988C4.40146 17.7239 18.2382 3.89427 35.3032 3.89427C52.0021 3.89427 65.6141 17.1415 66.1882 33.7004C66.1966 33.8752 66.1966 34.0582 66.2049 34.233C66.3297 34.6074 66.6791 34.882 67.0952 34.882C67.5278 34.882 67.8856 34.5908 67.9938 34.1914C67.9938 34.1248 67.9938 34.0666 67.9938 34C68.0021 33.9001 68.0021 33.8003 67.9938 33.7004Z" fill="#1F88C9"/>
<path d="M16.5327 48.6868V29.2903H19.0954V48.6868H16.5327Z" fill="#1F88C9"/>
<path d="M32.6991 41.0729V38.8013L40.9113 38.7846V45.9824C39.6466 46.9892 38.3486 47.7464 37.0091 48.254C35.6695 48.7616 34.2966 49.0112 32.8822 49.0112C30.9768 49.0112 29.2462 48.6035 27.6903 47.788C26.1344 46.9726 24.9612 45.791 24.1625 44.2516C23.372 42.7122 22.9727 40.9814 22.9727 39.0759C22.9727 37.187 23.3637 35.4229 24.1541 33.792C24.9446 32.1527 26.0761 30.9378 27.5572 30.1473C29.0382 29.3568 30.7438 28.9574 32.6742 28.9574C34.0803 28.9574 35.345 29.1821 36.4766 29.6397C37.6081 30.0974 38.4984 30.7298 39.1391 31.5369C39.7797 32.3524 40.2706 33.4092 40.6034 34.7156L38.2904 35.348C37.9992 34.3578 37.6414 33.5839 37.2087 33.0181C36.7761 32.4523 36.1604 32.0029 35.3533 31.6618C34.5546 31.3206 33.656 31.1542 32.6825 31.1542C31.5093 31.1542 30.4942 31.3289 29.6372 31.6867C28.7802 32.0445 28.0897 32.5105 27.5655 33.093C27.0413 33.6755 26.6336 34.3162 26.3424 35.0152C25.8515 36.2134 25.6019 37.5198 25.6019 38.9178C25.6019 40.6485 25.9014 42.0964 26.4922 43.2614C27.0912 44.4263 27.9565 45.2917 29.0881 45.8575C30.228 46.4234 31.4344 46.7063 32.7158 46.7063C33.8307 46.7063 34.9123 46.4899 35.969 46.0656C37.0257 45.6412 37.8328 45.1835 38.3736 44.6926V41.0812H32.6991V41.0729Z" fill="#1F88C9"/>
<path d="M58.5338 41.88L61.0964 42.5291C60.5556 44.6343 59.5905 46.2486 58.1926 47.3553C56.7948 48.462 55.0891 49.0195 53.0673 49.0195C50.9789 49.0195 49.2732 48.5952 47.9669 47.7464C46.6607 46.8977 45.6622 45.6661 44.9799 44.0518C44.2977 42.4375 43.9565 40.7068 43.9565 38.8512C43.9565 36.8291 44.3393 35.0734 45.1131 33.5673C45.8869 32.0611 46.9851 30.9212 48.4079 30.139C49.8307 29.3568 51.4032 28.9657 53.1089 28.9657C55.0475 28.9657 56.6783 29.4566 58.0013 30.4469C59.3242 31.4371 60.2478 32.8267 60.7636 34.6157L58.2342 35.2148C57.7849 33.8003 57.1276 32.7768 56.279 32.136C55.422 31.4953 54.3486 31.1708 53.0507 31.1708C51.5613 31.1708 50.3133 31.5286 49.3148 32.2442C48.3164 32.9598 47.6092 33.9167 47.2015 35.1233C46.7938 36.3299 46.5941 37.5697 46.5941 38.8512C46.5941 40.4987 46.8354 41.9383 47.318 43.1698C47.8005 44.4013 48.5494 45.3166 49.5644 45.9324C50.5795 46.5398 51.6778 46.8477 52.8593 46.8477C54.2987 46.8477 55.5135 46.4317 56.5119 45.6079C57.5104 44.7425 58.1843 43.5193 58.5338 41.88Z" fill="#1F88C9"/>
<path d="M40.9028 58.1395L43.2076 52.14H44.0646L46.5191 58.1395H45.6121L44.9132 56.3255H42.4088L41.7515 58.1395H40.9028ZM42.6335 55.6765H44.6636L44.0396 54.0123C43.8482 53.5047 43.7068 53.0969 43.6153 52.7724C43.5404 53.1552 43.4322 53.538 43.2908 53.9207L42.6335 55.6765Z" fill="#1F88C9"/>
<path d="M46.877 56.209L47.6258 56.1425C47.6591 56.442 47.7423 56.6917 47.8754 56.8831C48.0085 57.0744 48.2082 57.2325 48.4828 57.349C48.7573 57.4655 49.0652 57.5238 49.4063 57.5238C49.7059 57.5238 49.9721 57.4822 50.2051 57.3906C50.438 57.2991 50.6128 57.1743 50.7209 57.0245C50.8374 56.8664 50.8873 56.7 50.8873 56.5086C50.8873 56.3172 50.8291 56.1591 50.7209 56.0177C50.6128 55.8762 50.4297 55.7597 50.1801 55.6599C50.022 55.5933 49.6643 55.5018 49.1151 55.3686C48.566 55.2355 48.1749 55.1107 47.9586 54.9942C47.6757 54.8444 47.4594 54.6613 47.3179 54.4367C47.1765 54.212 47.1099 53.9624 47.1099 53.6878C47.1099 53.3882 47.1931 53.1053 47.3678 52.839C47.5426 52.5727 47.7922 52.373 48.1167 52.2399C48.4495 52.1068 48.8156 52.0319 49.215 52.0319C49.6559 52.0319 50.0553 52.1068 50.3881 52.2482C50.7209 52.3897 50.9872 52.606 51.1702 52.8806C51.3533 53.1552 51.4531 53.4714 51.4614 53.8292L50.7043 53.8875C50.6627 53.5047 50.5213 53.2218 50.2883 53.0304C50.0553 52.839 49.7059 52.7392 49.2399 52.7392C48.7573 52.7392 48.4079 52.8307 48.1916 53.0054C47.9752 53.1802 47.8587 53.3965 47.8587 53.6378C47.8587 53.8542 47.9336 54.0289 48.0917 54.1704C48.2415 54.3118 48.6409 54.4533 49.2898 54.5948C49.9388 54.7445 50.3798 54.8694 50.6211 54.9775C50.9705 55.1356 51.2285 55.3437 51.3949 55.5933C51.5613 55.8429 51.6445 56.1258 51.6445 56.442C51.6445 56.7582 51.553 57.0578 51.3699 57.3407C51.1869 57.6236 50.9206 57.84 50.5795 57.9981C50.2384 58.1562 49.8556 58.2311 49.423 58.2311C48.8821 58.2311 48.4245 58.1479 48.0584 57.9898C47.6923 57.8317 47.4011 57.5903 47.1931 57.2741C47.0018 56.9663 46.8936 56.6085 46.877 56.209Z" fill="#1F88C9"/>
<path d="M52.876 58.1395V52.14H53.6664V58.1395H52.876Z" fill="#1F88C9"/>
<path d="M54.4067 58.1395L56.7115 52.14H57.5685L60.023 58.1395H59.116L58.4171 56.3255H55.9044L55.2471 58.1395H54.4067ZM56.1374 55.6765H58.1675L57.5435 54.0123C57.3521 53.5047 57.2107 53.0969 57.1192 52.7724C57.0443 53.1552 56.9361 53.538 56.7947 53.9207L56.1374 55.6765Z" fill="#1F88C9"/>
</svg>
