<svg xmlns="http://www.w3.org/2000/svg" width="20" height="20" viewBox="0 0 20 20">
  <g id="Group_1" data-name="Group 1" transform="translate(3630 -13932)">
    <rect id="Rectangle_1" data-name="Rectangle 1" width="20" height="20" transform="translate(-3630 13932)" fill="none"/>
    <path id="Path_31" data-name="Path 31" d="M8,0c2.171,0,2.445.008,3.3.048A5.894,5.894,0,0,1,13.24.421a3.9,3.9,0,0,1,1.417.922,3.927,3.927,0,0,1,.922,1.417A5.91,5.91,0,0,1,15.951,4.7C15.99,5.555,16,5.829,16,8s-.008,2.445-.048,3.3a5.914,5.914,0,0,1-.373,1.943,4.085,4.085,0,0,1-2.339,2.339,5.91,5.91,0,0,1-1.943.373C10.445,15.99,10.171,16,8,16s-2.445-.008-3.3-.048a5.914,5.914,0,0,1-1.943-.373A4.085,4.085,0,0,1,.421,13.24,5.889,5.889,0,0,1,.048,11.3C.01,10.445,0,10.171,0,8S.008,5.555.048,4.7A5.889,5.889,0,0,1,.421,2.76,4.085,4.085,0,0,1,2.76.421,5.889,5.889,0,0,1,4.7.049C5.555.01,5.829,0,8,0ZM8,4a4,4,0,1,0,2.828,1.172A4,4,0,0,0,8,4Zm5.2-.2a1,1,0,1,0-.293.707A1,1,0,0,0,13.2,3.8ZM8,5.6a2.4,2.4,0,1,1-1.7.7A2.4,2.4,0,0,1,8,5.6Z" transform="translate(-3630 13936)" fill="#fff"/>
  </g>
</svg>
