<svg xmlns="http://www.w3.org/2000/svg" xmlns:xlink="http://www.w3.org/1999/xlink" width="17" height="17" viewBox="0 0 17 17">
  <defs>
    <clipPath id="clip-path">
      <circle id="Ellipse_23" data-name="Ellipse 23" cx="8.305" cy="8.305" r="8.305" transform="translate(1077 43)" fill="#c4c4c4"/>
    </clipPath>
  </defs>
  <g id="Group_3" data-name="Group 3" transform="translate(745 -13304)">
    <g id="Group_2" data-name="Group 2">
      <rect id="Rectangle_1" data-name="Rectangle 1" width="17" height="17" transform="translate(-745 13304)" fill="none"/>
      <g id="Mask_Group" data-name="Mask Group" transform="translate(-1822 13261)">
        <g id="Ellipse_23-2" data-name="Ellipse 23" clip-path="url(#clip-path)">
          <g id="Group_225" data-name="Group 225">
            <path id="Vector" d="M50.752,11.9V0H0V11.9c0,1.634,1.055,2.967,2.361,2.967h46.03A2.72,2.72,0,0,0,50.752,11.9Z" transform="translate(1059.93 53.955)" fill="#50b748"/>
            <path id="Vector-2" data-name="Vector" d="M50.752,0H0V4.1H50.752Z" transform="translate(1059.93 49.854)" fill="#d1232a"/>
            <path id="Vector-3" data-name="Vector" d="M50.753,3.211C50.753,1.441,49.7,0,48.392,0H2.361C1.055,0,0,1.438,0,3.211V16.083H50.753Z" transform="translate(1059.928 33.771)" fill="#58595b"/>
            <path id="Vector-4" data-name="Vector" d="M0,0C.046.388.534,1.86,1.027,1.907L4.474,7.926c.027.046.072.069.1.052s.033-.069.007-.116L1.136,1.843C1.347,1.4.309.232,0,0Z" transform="translate(1082.805 47.6)" fill="#fff"/>
            <path id="Vector-5" data-name="Vector" d="M0,.046C.045.425.522,1.9,1.032,1.972L4.475,7.983a.136.136,0,0,0,.078.067.071.071,0,0,0,.053-.007.078.078,0,0,0,.035-.069.154.154,0,0,0-.02-.074s-3.437-6-3.437-6.011a.349.349,0,0,0,.027-.136C1.211,1.22.319.238.038.029L0,0ZM4.564,8.01a.1.1,0,0,1-.053-.046L1.058,1.93H1.047C.582,1.881.123.518.048.087c.305.256,1.115,1.17,1.115,1.655a.327.327,0,0,1-.026.136v.01L4.588,7.922a.1.1,0,0,1,.015.053.039.039,0,0,1-.015.035l-.012,0Z" transform="translate(1082.786 47.557)"/>
            <path id="Vector-6" data-name="Vector" d="M4.65,0C4.338.234,3.306,1.392,3.508,1.844L.019,7.836c-.027.046-.025.1,0,.116s.078,0,.1-.052L3.612,1.908C4.114,1.862,4.6.384,4.65,0Z" transform="translate(1083.167 47.624)" fill="#fff"/>
            <path id="Vector-7" data-name="Vector" d="M4.659.025C4.379.234,3.483,1.217,3.483,1.75a.346.346,0,0,0,.025.136C3.5,1.9.023,7.878.023,7.878A.153.153,0,0,0,0,7.952a.079.079,0,0,0,0,.026.065.065,0,0,0,.031.044c.041.023.1,0,.136-.06L3.654,1.969C4.167,1.9,4.648.428,4.693.048V0ZM.057,7.978A.026.026,0,0,1,.043,7.96a.067.067,0,0,1,0-.016A.1.1,0,0,1,.06,7.891l3.488-6v-.01a.327.327,0,0,1-.025-.136c0-.486.817-1.4,1.119-1.657-.075.432-.537,1.8-1.005,1.838H3.626l-3.493,6C.11,7.972.075,7.989.057,7.978Z" transform="translate(1083.146 47.583)"/>
            <path id="Vector-8" data-name="Vector" d="M3.623,3.733c0,2.062-1.257,3.733-1.811,3.733S0,5.795,0,3.733,1.258,0,1.811,0,3.623,1.671,3.623,3.733Z" transform="translate(1083.499 48.215)" fill="#d0232a"/>
            <path id="Vector-9" data-name="Vector" d="M.374,0a5.3,5.3,0,0,0,0,3.915A5.3,5.3,0,0,0,.374,0Z" transform="translate(1086.373 49.99)"/>
            <path id="Vector-10" data-name="Vector" d="M.376,0a5.285,5.285,0,0,0,0,3.915A5.3,5.3,0,0,0,.376,0Z" transform="translate(1083.499 49.99)"/>
            <path id="Vector-11" data-name="Vector" d="M.693.5c0,.272-.155.5-.347.5S0,.772,0,.5.155,0,.346,0,.693.223.693.5Z" transform="translate(1084.965 51.448)" fill="#fff"/>
            <path id="Vector-12" data-name="Vector" d="M0,1.651A2.945,2.945,0,0,0,.3,3.3V0A2.945,2.945,0,0,0,0,1.651Z" transform="translate(1084.963 48.224)" fill="#fff"/>
            <path id="Vector-13" data-name="Vector" d="M.3,1.651A2.992,2.992,0,0,0,0,0V3.305A2.976,2.976,0,0,0,.3,1.651Z" transform="translate(1085.359 48.224)" fill="#fff"/>
            <path id="Vector-14" data-name="Vector" d="M0,0V3.3A2.938,2.938,0,0,0,.3,1.649,2.932,2.932,0,0,0,0,0Z" transform="translate(1085.359 52.367)" fill="#fff"/>
            <path id="Vector-15" data-name="Vector" d="M0,1.649A2.942,2.942,0,0,0,.3,3.3V0A2.939,2.939,0,0,0,0,1.649Z" transform="translate(1084.963 52.367)" fill="#fff"/>
          </g>
        </g>
      </g>
    </g>
  </g>
</svg>
