<svg xmlns="http://www.w3.org/2000/svg" width="20" height="20" viewBox="0 0 20 20">
  <g id="Group_1" data-name="Group 1" transform="translate(3646 -13902)">
    <rect id="Rectangle_1" data-name="Rectangle 1" width="20" height="20" transform="translate(-3646 13902)" fill="none"/>
    <path id="Path_30" data-name="Path 30" d="M3.785,1.778a1.788,1.788,0,0,1-.292,1.033,1.877,1.877,0,0,1-.838.7,1.95,1.95,0,0,1-1.1.126,1.915,1.915,0,0,1-.983-.49A1.816,1.816,0,0,1,.04,2.206,1.777,1.777,0,0,1,.14,1.14a1.846,1.846,0,0,1,.7-.83A1.938,1.938,0,0,1,1.9,0a1.918,1.918,0,0,1,.716.127A1.871,1.871,0,0,1,3.226.51a1.8,1.8,0,0,1,.413.58,1.754,1.754,0,0,1,.152.689ZM3.841,4.87H.065V16H3.841Zm5.966,0H6.05V16H9.769V10.16c0-3.254,4.5-3.557,4.5,0V16H18V8.952c0-5.485-6.665-5.281-8.231-2.587Z" transform="translate(-3646 13906)" fill="#fff"/>
  </g>
</svg>
