<svg xmlns="http://www.w3.org/2000/svg" width="32" height="32.398" viewBox="0 0 32 32.398">
  <g id="Group_2" data-name="Group 2" transform="translate(2584 -12367)">
    <g id="Group_1" data-name="Group 1">
      <rect id="Rectangle_2" data-name="Rectangle 2" width="32" height="32" transform="translate(-2584 12367)" fill="none"/>
      <g id="Group" transform="translate(-3578 9578)">
        <g id="Group-2" data-name="Group">
          <path id="Vector" d="M0,0H4.087V9.983H0Z" transform="translate(1003.571 2807.833)" fill="none" stroke="#fff" stroke-linecap="round" stroke-linejoin="round" stroke-width="1"/>
          <path id="Vector-2" data-name="Vector" d="M0,0V3.149" transform="translate(1005.581 2804.685)" fill="none" stroke="#fff" stroke-linecap="round" stroke-linejoin="round" stroke-width="1"/>
          <path id="Vector-3" data-name="Vector" d="M0,0V3.082" transform="translate(1005.581 2817.816)" fill="none" stroke="#fff" stroke-linecap="round" stroke-linejoin="round" stroke-width="1"/>
        </g>
        <g id="Group-3" data-name="Group">
          <path id="Vector-4" data-name="Vector" d="M0,0H4.087V9.983H0Z" transform="translate(996 2804.148)" fill="none" stroke="#fff" stroke-linecap="round" stroke-linejoin="round" stroke-width="1"/>
          <path id="Vector-5" data-name="Vector" d="M0,0V3.149" transform="translate(998.01 2801)" fill="none" stroke="#fff" stroke-linecap="round" stroke-linejoin="round" stroke-width="1"/>
          <path id="Vector-6" data-name="Vector" d="M0,0V3.149" transform="translate(998.01 2814.064)" fill="none" stroke="#fff" stroke-linecap="round" stroke-linejoin="round" stroke-width="1"/>
        </g>
        <g id="Group-4" data-name="Group">
          <path id="Vector-7" data-name="Vector" d="M0,0H4.087V9.983H0Z" transform="translate(1011.409 2804.148)" fill="none" stroke="#04bbf2" stroke-linecap="round" stroke-linejoin="round" stroke-width="1"/>
          <path id="Vector-8" data-name="Vector" d="M0,0V3.149" transform="translate(1013.419 2801)" fill="none" stroke="#04bbf2" stroke-linecap="round" stroke-linejoin="round" stroke-width="1"/>
          <path id="Vector-9" data-name="Vector" d="M0,0V3.149" transform="translate(1013.419 2814.064)" fill="none" stroke="#04bbf2" stroke-linecap="round" stroke-linejoin="round" stroke-width="1"/>
        </g>
        <g id="Group-5" data-name="Group">
          <path id="Vector-10" data-name="Vector" d="M0,0H4.087V9.983H0Z" transform="translate(1018.913 2807.833)" fill="none" stroke="#fff" stroke-linecap="round" stroke-linejoin="round" stroke-width="1"/>
          <path id="Vector-11" data-name="Vector" d="M0,0V3.149" transform="translate(1020.923 2804.685)" fill="none" stroke="#fff" stroke-linecap="round" stroke-linejoin="round" stroke-width="1"/>
          <path id="Vector-12" data-name="Vector" d="M0,0V3.082" transform="translate(1020.923 2817.816)" fill="none" stroke="#fff" stroke-linecap="round" stroke-linejoin="round" stroke-width="1"/>
        </g>
      </g>
    </g>
  </g>
</svg>
