<svg xmlns="http://www.w3.org/2000/svg" width="32.5" height="32.059" viewBox="0 0 32.5 32.059">
  <g id="Group_1" data-name="Group 1" transform="translate(2589.5 -12367)">
    <rect id="Rectangle_2" data-name="Rectangle 2" width="32" height="32" transform="translate(-2589 12367)" fill="none"/>
    <g id="Group" transform="translate(-3194 9638)">
      <g id="Group-2" data-name="Group">
        <path id="Vector" d="M6.928,3.464A3.464,3.464,0,1,1,3.464,0,3.464,3.464,0,0,1,6.928,3.464Z" transform="translate(616.828 2744)" fill="none" stroke="#04bbf2" stroke-linecap="round" stroke-linejoin="round" stroke-width="1"/>
        <path id="Vector-2" data-name="Vector" d="M0,7.773a7.773,7.773,0,1,1,15.545,0" transform="translate(612.519 2752.786)" fill="none" stroke="#04bbf2" stroke-linecap="round" stroke-linejoin="round" stroke-width="1"/>
      </g>
      <g id="Group-3" data-name="Group">
        <path id="Vector-3" data-name="Vector" d="M5.238,2.619A2.619,2.619,0,1,1,2.619,0,2.619,2.619,0,0,1,5.238,2.619Z" transform="translate(627.896 2745.943)" fill="none" stroke="#fff" stroke-linecap="round" stroke-linejoin="round" stroke-width="1"/>
        <path id="Vector-4" data-name="Vector" d="M0,.507A6.06,6.06,0,0,1,2.45,0,5.878,5.878,0,0,1,8.364,5.914" transform="translate(628.064 2752.533)" fill="none" stroke="#fff" stroke-linecap="round" stroke-linejoin="round" stroke-width="1"/>
      </g>
      <g id="Group-4" data-name="Group">
        <path id="Vector-5" data-name="Vector" d="M5.238,2.619A2.619,2.619,0,1,1,2.619,0,2.619,2.619,0,0,1,5.238,2.619Z" transform="translate(608.295 2745.943)" fill="none" stroke="#fff" stroke-linecap="round" stroke-linejoin="round" stroke-width="1"/>
        <path id="Vector-6" data-name="Vector" d="M0,5.914A5.878,5.878,0,0,1,5.914,0,6.45,6.45,0,0,1,8.2.422" transform="translate(605 2752.533)" fill="none" stroke="#fff" stroke-linecap="round" stroke-linejoin="round" stroke-width="1"/>
      </g>
    </g>
  </g>
</svg>
