<svg xmlns="http://www.w3.org/2000/svg" width="17" height="17" viewBox="0 0 17 17">
  <g id="Group_2" data-name="Group 2" transform="translate(739 -13304)">
    <rect id="Rectangle_1" data-name="Rectangle 1" width="17" height="17" transform="translate(-739 13304)" fill="none"/>
    <g id="qatar" transform="translate(-1132 13261)">
      <path id="Ellipse_9" data-name="Ellipse 9" d="M16.61,8.305A8.305,8.305,0,1,1,8.305,0,8.305,8.305,0,0,1,16.61,8.305Z" transform="translate(393 43)" fill="#f0f0f0"/>
      <path id="Path_220" data-name="Path 220" d="M13.03,8.1A8.1,8.1,0,0,0,.62,1.242L2.4,2,0,3.014,2.4,4.031,0,5.048,2.394,6.059,0,7.076,2.394,8.094,0,9.111l2.394,1.017L0,11.146l2.394,1.017L0,13.181,2.394,14.2.62,14.952A8.1,8.1,0,0,0,13.029,8.094Z" transform="translate(396.169 43.415)" fill="#751a46"/>
    </g>
  </g>
</svg>
