<svg width="44" height="42" viewBox="0 0 44 42" fill="none" xmlns="http://www.w3.org/2000/svg">
<path d="M17.9827 6C8.06709 6 0 14.0671 0 23.9827C0 33.8983 8.06709 41.9654 17.9827 41.9654C27.8983 41.9654 35.9654 33.8983 35.9654 23.9827C35.9654 14.0671 27.8983 6 17.9827 6ZM17.987 17.5243C17.9857 17.5243 17.9842 17.524 17.9827 17.524C17.9808 17.524 17.9796 17.5243 17.9784 17.5243C16.847 17.5222 15.8847 16.64 15.7861 15.5124C15.7803 15.4487 15.7779 15.3847 15.7779 15.3198C15.7779 14.1074 16.7622 13.1215 17.9737 13.116C17.9768 13.116 17.9799 13.1169 17.9829 13.1169C17.9863 13.1169 17.9896 13.116 17.9927 13.116C19.2039 13.1212 20.188 14.1077 20.188 15.3201C20.1877 16.5341 19.2009 17.5222 17.9869 17.5243H17.987ZM17.3246 7.38069V11.8621C15.8529 12.1416 14.7057 13.3396 14.4988 14.8355C13.3454 14.9509 12.2349 15.1195 11.1801 15.3396C12.4944 10.942 14.7596 7.83977 17.3246 7.38066V7.38069ZM14.5648 16.1507C14.8918 17.4822 15.9835 18.518 17.3246 18.7775V23.3245H9.98639C10.032 21.0015 10.3185 18.7824 10.7951 16.7766C11.9796 16.4984 13.2425 16.2859 14.5648 16.1506V16.1507ZM17.3246 31.9753C16.11 31.9518 14.9107 31.8642 13.7412 31.7142C13.7039 29.8158 12.1587 28.2817 10.256 28.2643C10.1024 27.0834 10.0133 25.8707 9.99004 24.6411L17.3246 24.6408L17.3246 31.9753ZM8.6698 23.3245H1.3769C1.83114 20.7714 4.89484 18.4848 9.3335 17.1644C8.94018 19.0674 8.70846 21.1399 8.66989 23.3245H8.6698ZM8.67317 24.6407C8.69735 25.9501 8.79284 27.2427 8.95936 28.5005C8.20117 28.7937 7.57005 29.3395 7.16932 30.0367C3.84704 28.655 1.75516 26.6954 1.38264 24.6407H8.67317ZM10.2232 29.5789C11.4393 29.5789 12.4283 30.5678 12.4283 31.7834C12.4283 32.9995 11.4393 33.9885 10.2232 33.9885C9.00705 33.9885 8.01808 32.9995 8.01808 31.7834C8.01808 30.5678 9.00705 29.5789 10.2232 29.5789ZM13.5189 33.0119C14.7607 33.1739 16.0346 33.2672 17.3242 33.2911V40.5816C15.282 40.2103 13.3306 38.1393 11.9502 34.8494C12.6676 34.4429 13.2269 33.7928 13.5189 33.012V33.0119ZM18.6407 31.9785V24.6406H23.1877C23.4457 25.996 24.4822 27.0755 25.813 27.3997C25.6777 28.7217 25.4659 29.9846 25.1877 31.1695C23.1831 31.6464 20.9639 31.932 18.6407 31.9785L18.6407 31.9785ZM24.8005 32.6311C23.4799 37.0692 21.1938 40.1334 18.6407 40.587V33.2944C20.8247 33.2558 22.8972 33.0241 24.8005 32.6311V32.6311ZM26.6453 21.7776C27.8614 21.7776 28.8497 22.7666 28.8497 23.9821C28.8497 25.1982 27.8608 26.1865 26.6453 26.1865C25.4298 26.1865 24.4408 25.1976 24.4408 23.9821C24.4405 22.7666 25.4298 21.7776 26.6453 21.7776ZM27.1295 27.466C28.6251 27.2588 29.8228 26.1122 30.1025 24.6408H34.5849C34.1258 27.2052 31.0229 29.4703 26.6244 30.7849C26.8448 29.7301 27.0138 28.619 27.1291 27.466H27.1295ZM30.1025 23.3246C29.8225 21.8529 28.6256 20.7056 27.1295 20.4988C27.0132 19.3386 26.8439 18.222 26.6217 17.1614C31.0655 18.4813 34.1338 20.7696 34.5877 23.3246H30.1025ZM25.8136 20.5642C24.4828 20.8883 23.4457 21.9685 23.1883 23.3242L18.6407 23.3245V18.7776C19.9967 18.5199 21.0769 17.4825 21.4007 16.1507C22.7282 16.2867 23.9954 16.5 25.1846 16.7801C25.4647 17.9689 25.678 19.237 25.8136 20.5643L25.8136 20.5642ZM21.4671 14.8351C21.3636 14.0781 21.0217 13.3787 20.4723 12.8293C19.9654 12.3221 19.33 11.9903 18.6404 11.8605V7.37749C21.195 7.83203 23.4831 10.9 24.8029 15.3427C23.743 15.1211 22.6269 14.9509 21.4672 14.8349L21.4671 14.8351ZM13.8041 7.84764C12.0208 9.5348 10.577 12.2841 9.67802 15.6961C6.25317 16.6101 3.51491 18.072 1.83582 19.8495C3.33719 13.9903 7.95122 9.36499 13.8036 7.84796L13.8041 7.84764ZM6.74135 31.2834C6.71778 31.4474 6.70156 31.6133 6.70156 31.7841C6.70156 33.7259 8.28128 35.3057 10.2231 35.3057C10.3853 35.3057 10.5439 35.2907 10.7006 35.2692C11.5577 37.3427 12.6201 38.9852 13.8188 40.122C7.96908 38.6124 3.35388 33.9975 1.84389 28.1479C2.98958 29.3551 4.6468 30.4231 6.74166 31.2833L6.74135 31.2834ZM26.2693 32.2864C29.6806 31.3877 32.4296 29.9445 34.1177 28.1615C32.6013 34.0146 27.9748 38.6288 22.1147 40.1293C23.893 38.4507 25.3552 35.7118 26.2693 32.2864V32.2864ZM26.2733 15.6923C25.3593 12.2607 23.8952 9.51685 22.1147 7.83597C27.9899 9.34007 32.6243 13.9746 34.1288 19.85C32.448 18.0698 29.7045 16.6063 26.2733 15.6924V15.6923Z" fill="#1F88C9"/>
</svg>
