<svg xmlns="http://www.w3.org/2000/svg" width="32" height="32.5" viewBox="0 0 32 32.5">
  <g id="Group_1" data-name="Group 1" transform="translate(2581 -12367)">
    <rect id="Rectangle_2" data-name="Rectangle 2" width="32" height="32" transform="translate(-2581 12367)" fill="none"/>
    <g id="Group" transform="translate(-3574 9740)">
      <g id="Group-2" data-name="Group">
        <path id="Vector" d="M9.293,18.587A9.294,9.294,0,1,1,17.83,5.576" transform="translate(999 2640)" fill="none" stroke="#fff" stroke-linecap="round" stroke-linejoin="round" stroke-width="1"/>
        <g id="Group-3" data-name="Group">
          <path id="Vector-2" data-name="Vector" d="M4.337,18.587A11.386,11.386,0,0,1,0,9.293,11.386,11.386,0,0,1,4.337,0" transform="translate(1003.956 2640)" fill="none" stroke="#fff" stroke-linecap="round" stroke-linejoin="round" stroke-width="1"/>
          <path id="Vector-3" data-name="Vector" d="M0,0A9.322,9.322,0,0,1,8.536,5.576" transform="translate(1008.294 2640)" fill="none" stroke="#fff" stroke-linecap="round" stroke-linejoin="round" stroke-width="1"/>
          <path id="Vector-4" data-name="Vector" d="M9.293,18.587A9.293,9.293,0,0,1,9.293,0,10.543,10.543,0,0,1,13.08,5.576" transform="translate(999 2640)" fill="none" stroke="#fff" stroke-linecap="round" stroke-linejoin="round" stroke-width="1"/>
        </g>
        <path id="Vector-5" data-name="Vector" d="M0,0H8.192" transform="translate(999.964 2653.355)" fill="none" stroke="#fff" stroke-linecap="round" stroke-linejoin="round" stroke-width="1"/>
        <path id="Vector-6" data-name="Vector" d="M0,0H4.75" transform="translate(1012.08 2645.576)" fill="none" stroke="#fff" stroke-linecap="round" stroke-linejoin="round" stroke-width="1"/>
        <path id="Vector-7" data-name="Vector" d="M0,0H12.322" transform="translate(999.757 2645.576)" fill="none" stroke="#fff" stroke-linecap="round" stroke-linejoin="round" stroke-width="1"/>
      </g>
      <g id="Group-4" data-name="Group">
        <g id="Group-5" data-name="Group">
          <path id="Vector-8" data-name="Vector" d="M0,11.015V0" transform="translate(1012.148 2647.985)" fill="none" stroke="#04bbf2" stroke-linecap="round" stroke-linejoin="round" stroke-width="1"/>
          <path id="Vector-9" data-name="Vector" d="M0,2.134,2.065,0,4.337,2.2" transform="translate(1010.083 2647.985)" fill="none" stroke="#04bbf2" stroke-linecap="round" stroke-linejoin="round" stroke-width="1"/>
        </g>
        <g id="Group-6" data-name="Group">
          <path id="Vector-10" data-name="Vector" d="M0,0V11.015" transform="translate(1016.623 2647.779)" fill="none" stroke="#04bbf2" stroke-linecap="round" stroke-linejoin="round" stroke-width="1"/>
          <path id="Vector-11" data-name="Vector" d="M0,.138,2.134,2.272,4.337,0" transform="translate(1014.489 2656.522)" fill="none" stroke="#04bbf2" stroke-linecap="round" stroke-linejoin="round" stroke-width="1"/>
        </g>
      </g>
    </g>
  </g>
</svg>
