<svg xmlns="http://www.w3.org/2000/svg" width="32" height="32.305" viewBox="0 0 32 32.305">
  <g id="Group_1" data-name="Group 1" transform="translate(2586 -12367)">
    <rect id="Rectangle_2" data-name="Rectangle 2" width="32" height="32" transform="translate(-2586 12367)" fill="none"/>
    <g id="Group" transform="translate(-3579 9632)">
      <path id="Vector" d="M9.687,4.844A4.844,4.844,0,1,1,4.844,0,4.844,4.844,0,0,1,9.687,4.844Z" transform="translate(995 2757.075)" fill="none" stroke="#04bbf2" stroke-linecap="round" stroke-linejoin="round" stroke-width="1"/>
      <path id="Vector-2" data-name="Vector" d="M6.629,3.315A3.315,3.315,0,1,1,3.315,0,3.315,3.315,0,0,1,6.629,3.315Z" transform="translate(1015.606 2760.175)" fill="none" stroke="#04bbf2" stroke-linecap="round" stroke-linejoin="round" stroke-width="1"/>
      <path id="Vector-3" data-name="Vector" d="M0,6.884V0H8.839l3.74,6.884Z" transform="translate(999.117 2747)" fill="none" stroke="#fff" stroke-linecap="round" stroke-linejoin="round" stroke-width="1"/>
      <path id="Vector-4" data-name="Vector" d="M0,.833A8.89,8.89,0,0,1,8.839,1.6a8.879,8.879,0,0,1,3.57,8.584h5.355" transform="translate(995.547 2753.901)" fill="none" stroke="#fff" stroke-linecap="round" stroke-linejoin="round" stroke-width="1"/>
      <path id="Vector-5" data-name="Vector" d="M0,0H6.8" transform="translate(1007.701 2760.259)" fill="none" stroke="#fff" stroke-linecap="round" stroke-linejoin="round" stroke-width="1"/>
      <path id="Vector-6" data-name="Vector" d="M0,0H4.93C8.5,0,11.3,2.125,11.3,6.119" transform="translate(1011.696 2753.885)" fill="none" stroke="#fff" stroke-linecap="round" stroke-linejoin="round" stroke-width="1"/>
    </g>
  </g>
</svg>
