<svg xmlns="http://www.w3.org/2000/svg" width="20" height="20" viewBox="0 0 20 20">
  <g id="Group_2" data-name="Group 2" transform="translate(3646 -13911)">
    <g id="Group_1" data-name="Group 1">
      <rect id="Rectangle_1" data-name="Rectangle 1" width="20" height="20" transform="translate(-3646 13911)" fill="none"/>
      <path id="Path_32" data-name="Path 32" d="M20,1.9a8.331,8.331,0,0,1-2.357.635A4.063,4.063,0,0,0,19.447.3a8.281,8.281,0,0,1-2.606.98,4.152,4.152,0,0,0-4.933-.8,4.064,4.064,0,0,0-1.8,1.9,3.978,3.978,0,0,0-.255,2.586A11.8,11.8,0,0,1,5.162,3.735a11.616,11.616,0,0,1-3.774-3,3.987,3.987,0,0,0-.45,2.947,4.044,4.044,0,0,0,1.724,2.45A4.141,4.141,0,0,1,.8,5.63v.054a4,4,0,0,0,.928,2.557A4.118,4.118,0,0,0,4.1,9.644a4.2,4.2,0,0,1-1.854.07A4.042,4.042,0,0,0,3.7,11.721a4.149,4.149,0,0,0,2.374.8,8.287,8.287,0,0,1-2.868,1.431A8.365,8.365,0,0,1,0,14.19,11.745,11.745,0,0,0,6.289,16a11.761,11.761,0,0,0,4.48-.853,11.611,11.611,0,0,0,3.8-2.488A11.4,11.4,0,0,0,17.1,8.92a11.25,11.25,0,0,0,.867-4.408c0-.174,0-.35-.012-.521A8.266,8.266,0,0,0,20,1.9Z" transform="translate(-3646 13915)" fill="#fff"/>
    </g>
  </g>
</svg>
