<svg xmlns="http://www.w3.org/2000/svg" width="17" height="17" viewBox="0 0 17 17">
  <g id="Group_1" data-name="Group 1" transform="translate(765 -13308)">
    <rect id="Rectangle_1" data-name="Rectangle 1" width="17" height="17" transform="translate(-765 13308)" fill="none"/>
    <g id="united-arab-emirates_2_" data-name="united-arab-emirates (2)" transform="translate(-930 13268)">
      <path id="Ellipse_8" data-name="Ellipse 8" d="M16.61,8.305A8.305,8.305,0,1,1,8.305,0,8.305,8.305,0,0,1,16.61,8.305Z" transform="translate(165.001 40.002)" fill="#fff"/>
      <path id="Path_213" data-name="Path 213" d="M5.446,0H0A24.438,24.438,0,0,1,0,5.859H5.458A8.847,8.847,0,0,0,5.446,0Z" transform="translate(175.659 45.36)" fill="#efecec"/>
      <path id="Path_214" data-name="Path 214" d="M2.095,5.856H7.54V5.848A8.845,8.845,0,0,0,4.626,1.82,8.845,8.845,0,0,0,0,0C1.353.742,1.748,3.091,2.095,5.856Z" transform="translate(173.564 40.037)" fill="#429945"/>
      <path id="Path_215" data-name="Path 215" d="M0,5.889A8.845,8.845,0,0,0,4.634,4.064,8.845,8.845,0,0,0,7.547.025.1.1,0,0,1,7.555,0H2.1C1.756,2.778,1.359,5.144,0,5.889Z" transform="translate(173.565 50.685)" fill="#0b0b0b"/>
      <path id="Path_216" data-name="Path 216" d="M0,2.947A8.826,8.826,0,0,0,.493,5.859H12.187a24.441,24.441,0,0,0,0-5.859H.5A8.821,8.821,0,0,0,0,2.947Z" transform="translate(165 45.36)" fill="#efefef"/>
      <path id="Path_217" data-name="Path 217" d="M0,5.885v.007H11.677C11.329,3.129,10.479.779,9.126.037,8.864.014,8.6,0,8.332,0A8.841,8.841,0,0,0,0,5.885Z" transform="translate(165.507 40)" fill="#49a948"/>
      <path id="Path_218" data-name="Path 218" d="M11.694,0H0L.008.025A8.842,8.842,0,0,0,3.239,4.3,8.842,8.842,0,0,0,8.346,5.924c.267,0,.532-.013.794-.037C10.5,5.146,11.35,2.78,11.694,0Z" transform="translate(165.493 50.684)" fill="#151515"/>
      <path id="Path_219" data-name="Path 219" d="M0,7.629a8.28,8.28,0,0,0,5.447,7.629V0A8.279,8.279,0,0,0,0,7.629Z" transform="translate(165 40.677)" fill="#e73b36"/>
    </g>
  </g>
</svg>
