<svg xmlns="http://www.w3.org/2000/svg" width="17" height="17" viewBox="0 0 17 17">
  <g id="Group_2" data-name="Group 2" transform="translate(739 -13304)">
    <rect id="Rectangle_1" data-name="Rectangle 1" width="17" height="17" transform="translate(-739 13304)" fill="none"/>
    <g id="Group_231" data-name="Group 231" transform="translate(-1360 13261)">
      <path id="Ellipse_10" data-name="Ellipse 10" d="M17,8.5A8.5,8.5,0,1,1,8.5,0,8.5,8.5,0,0,1,17,8.5Z" transform="translate(621 43)" fill="#f0f0f0"/>
      <g id="Group_67" data-name="Group 67">
        <path id="Path_221" data-name="Path 221" d="M1.507,0A8.713,8.713,0,0,0,0,3.042H4.549Z" transform="translate(621 46.121)" fill="#0052b4"/>
        <path id="Path_222" data-name="Path 222" d="M4.549,3.042A8.713,8.713,0,0,0,3.042,0L0,3.042Z" transform="translate(633.34 46.123)" fill="#0052b4"/>
        <path id="Path_223" data-name="Path 223" d="M0,0A8.714,8.714,0,0,0,1.507,3.042L4.549,0Z" transform="translate(621.003 53.727)" fill="#0052b4"/>
        <path id="Path_224" data-name="Path 224" d="M3.042,1.507A8.713,8.713,0,0,0,0,0V4.549Z" transform="translate(631.728 43)" fill="#0052b4"/>
        <path id="Path_225" data-name="Path 225" d="M0,3.042A8.714,8.714,0,0,0,3.042,4.549V0Z" transform="translate(624.122 55.342)" fill="#0052b4"/>
        <path id="Path_226" data-name="Path 226" d="M3.042,0A8.714,8.714,0,0,0,0,1.507L3.042,4.549Z" transform="translate(624.123 43.002)" fill="#0052b4"/>
        <path id="Path_227" data-name="Path 227" d="M0,4.549A8.713,8.713,0,0,0,3.042,3.042L0,0Z" transform="translate(631.727 55.34)" fill="#0052b4"/>
        <path id="Path_228" data-name="Path 228" d="M0,0,3.042,3.042A8.713,8.713,0,0,0,4.549,0Z" transform="translate(633.34 53.727)" fill="#0052b4"/>
      </g>
      <g id="Group_68" data-name="Group 68">
        <path id="Path_229" data-name="Path 229" d="M16.926,7.392H9.607V.072a8.577,8.577,0,0,0-2.218,0v7.32H.072a8.577,8.577,0,0,0,0,2.218h7.32v7.319a8.577,8.577,0,0,0,2.218,0V9.607h7.319a8.577,8.577,0,0,0,0-2.218Z" transform="translate(621 43)" fill="#d80027"/>
        <path id="Path_230" data-name="Path 230" d="M0,0,3.792,3.792q.261-.261.5-.545L1.045,0H0Z" transform="translate(631.716 53.717)" fill="#d80027"/>
        <path id="Path_231" data-name="Path 231" d="M3.792,0,0,3.792q.261.261.545.5L3.792,1.044Z" transform="translate(623.49 53.717)" fill="#d80027"/>
        <path id="Path_232" data-name="Path 232" d="M4.293,3.792.5,0Q.238.261,0,.545L3.247,3.792H4.293Z" transform="translate(622.989 45.49)" fill="#d80027"/>
        <path id="Path_233" data-name="Path 233" d="M0,4.292,3.792.5Q3.532.238,3.247,0L0,3.247Z" transform="translate(631.716 44.99)" fill="#d80027"/>
      </g>
    </g>
  </g>
</svg>
